<svg width="64" height="64" xmlns="http://www.w3.org/2000/svg">

 <g>
  <title>background</title>
  <rect fill="none" id="canvas_background" height="402" width="582" y="-1" x="-1"/>
 </g>
 <g>
  <title>Layer 1</title>
  <path fill="#ffffff" id="Fill-59" d="m18,54.4l-2.5,0l1.5,-2.1c1.1,-1.6 1.9,-3.5 2.3,-6c-7.1,-3.2 -10.9,-9.2 -10.9,-17.1c0,-12.1 9.1,-19.6 23.8,-19.6c14.7,0 23.8,7.5 23.8,19.6c0,12.2 -8.9,19.6 -23.8,19.6c-0.3,0 -0.7,0 -1,0c-2.4,2.6 -6.4,5.6 -13.2,5.6l0,0zm14,-42.2c-13.3,0 -21.2,6.3 -21.2,17c0,9.1 5.6,13.2 10.2,15.1l0.9,0.4l-0.1,1c-0.3,2.3 -0.8,4.3 -1.6,6c4.8,-0.6 7.6,-3 9.1,-5l0.4,-0.5l0.9,0c0.4,0 0.9,0 1.3,0c19.1,0 21.2,-11.9 21.2,-17c0.1,-10.6 -7.8,-17 -21.1,-17l0,0z" class="st0"/>
 </g>
</svg>