<svg width="32" height="32" xmlns="http://www.w3.org/2000/svg">

 <title/>
 <g>
  <title>background</title>
  <rect fill="none" id="canvas_background" height="402" width="582" y="-1" x="-1"/>
 </g>
 <g>
  <title>Layer 1</title>
  <path fill="#ffffff" id="svg_1" d="m16,25.47c-7.53,0 -13.41,-8.54 -13.66,-8.91l-0.34,-0.56l0.38,-0.56c0.21,-0.37 6.09,-8.91 13.62,-8.91s13.41,8.54 13.66,8.91l0.34,0.56l-0.38,0.56c-0.21,0.37 -6.09,8.91 -13.62,8.91zm-11.59,-9.47c1.39,1.82 6.14,7.47 11.59,7.47s10.2,-5.64 11.59,-7.47c-1.39,-1.82 -6.14,-7.47 -11.59,-7.47s-10.2,5.64 -11.59,7.47z" class="cls-1"/>
  <path fill="#ffffff" id="svg_2" d="m16,11a4.14,4.14 0 0 0 -0.48,0a0.34,0.34 0 0 0 -0.31,0.33a0.34,0.34 0 0 0 0.1,0.24l0,0a2.59,2.59 0 0 1 0.74,1.8a2.63,2.63 0 0 1 -2.63,2.63a2.58,2.58 0 0 1 -1.78,-0.72l0,0a0.35,0.35 0 0 0 -0.6,0.18a4.13,4.13 0 0 0 -0.04,0.54a5,5 0 1 0 5,-5z" class="cls-1"/>
 </g>
</svg>