<svg width="128" height="128" xmlns="http://www.w3.org/2000/svg">

 <g>
  <title>background</title>
  <rect fill="none" id="canvas_background" height="402" width="582" y="-1" x="-1"/>
 </g>
 <g>
  <title>Layer 1</title>
  <circle fill="#e27866" id="svg_1" r="64" cy="64" cx="64"/>
  <path fill="#ffffff" id="svg_3" d="m103,29l-78,0c-0.6,0 -1,0.4 -1,1l0,12c0,0.6 0.4,1 1,1l78,0c0.6,0 1,-0.4 1,-1l0,-12c0,-0.6 -0.4,-1 -1,-1z" class="st0"/>
  <path fill="#ffffff" id="svg_4" d="m103,57l-78,0c-0.6,0 -1,0.4 -1,1l0,12c0,0.6 0.4,1 1,1l78,0c0.6,0 1,-0.4 1,-1l0,-12c0,-0.6 -0.4,-1 -1,-1z" class="st0"/>
  <path fill="#ffffff" id="svg_5" d="m103,85l-78,0c-0.6,0 -1,0.4 -1,1l0,12c0,0.6 0.4,1 1,1l78,0c0.6,0 1,-0.4 1,-1l0,-12c0,-0.6 -0.4,-1 -1,-1z" class="st0"/>
 </g>
</svg>