<svg width="56.69299999999999" height="56.69299999999999" xmlns="http://www.w3.org/2000/svg">

 <g>
  <title>background</title>
  <rect fill="none" id="canvas_background" height="402" width="582" y="-1" x="-1"/>
 </g>
 <g>
  <title>Layer 1</title>
  <path fill="#e27866" id="svg_1" d="m3.428,31.085c6.19,0 12.009,2.418 16.382,6.816c4.381,4.398 6.793,10.256 6.793,16.492l9.539,0c0,-18.113 -14.676,-32.848 -32.714,-32.848l0,9.54zm0.015,-16.911c22.061,0 40.01,18.047 40.01,40.231l9.539,0c0,-27.445 -22.229,-49.77 -49.549,-49.77l0,9.539zm13.191,33.567c0,3.648 -2.959,6.607 -6.607,6.607s-6.607,-2.958 -6.607,-6.607c0,-3.65 2.958,-6.607 6.606,-6.607s6.608,2.957 6.608,6.607z"/>
 </g>
</svg>